<svg width="111" height="29" fill="none" version="1.1" viewBox="0 0 111 29" xmlns="http://www.w3.org/2000/svg">
 <g style="fill:#ff605b" aria-label="Rubik">
  <path d="m1.1631 28.313q-0.41066 0-0.70933-0.29866t-0.29866-0.70933v-24.117q0-0.41066 0.29866-0.70933t0.70933-0.29866h11.051q5.376 0 8.3999 2.4266 3.024 2.4266 3.024 6.6453 0 2.5013-1.1573 4.368-1.12 1.8293-2.8746 2.9493l4.592 8.5119q0.112 0.224 0.112 0.41066 0 0.336-0.26133 0.59733-0.224 0.224-0.56 0.224h-7.6533q-0.74666 0-1.12-0.37333t-0.48533-0.63466l-3.2106-7.1306h-1.5307v7.1306q0 0.41066-0.29866 0.70933t-0.70933 0.29866zm8.3253-15.232h2.7253q0.85866 0 1.2693-0.56 0.448-0.59733 0.448-1.344t-0.41066-1.3813q-0.37333-0.67199-1.3067-0.67199h-2.7253z" style="fill:#ff605b"/>
  <path d="m33.817 28.687q-1.8666 0-3.5466-0.89599-1.6427-0.89599-2.688-2.7626-1.008-1.8666-1.008-4.816v-10.304q0-0.41066 0.29866-0.70933t0.70933-0.29866h7.1306q0.41066 0 0.70933 0.29866t0.29866 0.70933v10.043q0 2.0533 1.8666 2.0533 0.89599 0 1.3813-0.52266t0.48533-1.5307v-10.043q0-0.41066 0.29866-0.70933t0.70933-0.29866h7.0933q0.41066 0 0.70933 0.29866t0.29866 0.70933v17.397q0 0.41066-0.29866 0.70933t-0.70933 0.29866h-6.5333q-0.41066 0-0.70933-0.29866t-0.29866-0.70933v-1.232q-0.93332 1.3813-2.576 2.016-1.6427 0.59733-3.6213 0.59733z" style="fill:#ff605b"/>
  <path d="m65.805 28.687q-1.9413 0-3.2853-0.59733-1.344-0.63466-2.24-1.6427v0.85866q0 0.41066-0.29866 0.70933t-0.70933 0.29866h-6.3466q-0.41066 0-0.70933-0.29866t-0.29866-0.70933v-24.49q0-0.41066 0.29866-0.70933t0.70933-0.29866h6.9066q0.41066 0 0.70933 0.29866t0.29866 0.70933v7.4666q0.89599-0.82133 2.128-1.2693 1.2693-0.48533 2.8373-0.48533 1.6427 0 3.024 0.52266 1.4187 0.52266 2.464 1.568 1.0827 1.0453 1.7173 2.688 0.63466 1.6053 0.70933 3.808 0.03733 0.82133 0.03733 1.456t-0.03733 1.4933q-0.112 2.352-0.74666 3.9946t-1.7173 2.688q-1.0453 1.008-2.4266 1.4933-1.3813 0.448-3.024 0.448zm-3.0986-6.6826q0.70933 0 1.0827-0.26133t0.52266-0.74666q0.18666-0.48533 0.26133-1.1573 0.112-1.232 0-2.464-0.07467-0.67199-0.26133-1.1573-0.14933-0.48533-0.52266-0.74666t-1.0827-0.26133q-0.63466 0-1.0453 0.224-0.37333 0.224-0.59733 0.63466-0.18666 0.41066-0.224 1.008-0.03733 0.82133-0.03733 1.3813 0 0.52266 0.03733 1.3813 0.03733 0.67199 0.18666 1.1573 0.18666 0.48533 0.59733 0.74666t1.0827 0.26133z" style="fill:#ff605b"/>
  <path d="m77.57 28.313q-0.41066 0-0.70933-0.29866t-0.29866-0.70933v-17.397q0-0.41066 0.29866-0.70933t0.70933-0.29866h6.6826q0.41066 0 0.70933 0.29866t0.29866 0.70933v17.397q0 0.41066-0.29866 0.70933t-0.70933 0.29866zm0.18666-21.466q-0.41066 0-0.70933-0.29866t-0.29866-0.70933v-4.5173q0-0.41066 0.29866-0.70933t0.70933-0.29866h6.3093q0.41066 0 0.70933 0.29866t0.29866 0.70933v4.5173q0 0.41066-0.29866 0.70933t-0.70933 0.29866z" style="fill:#ff605b"/>
  <path d="m89.601 28.313q-0.41066 0-0.70933-0.29866t-0.29866-0.70933v-24.49q0-0.41066 0.29866-0.70933t0.70933-0.29866h6.5333q0.41066 0 0.70933 0.29866t0.29866 0.70933v12.096l3.2853-5.376q0.0747-0.14933 0.336-0.37333 0.26133-0.26133 0.74666-0.26133h7.5413q0.37333 0 0.63467 0.26133 0.26133 0.26133 0.26133 0.63466 0 0.14933-0.0747 0.336-0.0373 0.14933-0.112 0.224l-5.1146 7.2799 6.048 9.2959q0.14933 0.224 0.14933 0.48533 0 0.37333-0.26133 0.63466t-0.63466 0.26133h-7.8399q-0.56 0-0.82133-0.26133-0.26133-0.29866-0.336-0.37333l-3.808-6.3466v5.9733q0 0.41066-0.29866 0.70933t-0.70933 0.29866z" style="fill:#ff605b"/>
 </g>
</svg>
